<svg width="50" height="50" viewBox="0 0 50 50" fill="none" xmlns="http://www.w3.org/2000/svg">
<g id="Frame 48095812">
<rect width="50" height="50" rx="25" fill="#FABF12" style="fill:#FABF12;fill:color(display-p3 0.9804 0.7490 0.0706);fill-opacity:1;"/>
<path id="Arrow 1" d="M10 23.75C9.30964 23.75 8.75 24.3096 8.75 25C8.75 25.6904 9.30964 26.25 10 26.25L10 23.75ZM40.8839 25.8839C41.372 25.3957 41.372 24.6043 40.8839 24.1161L32.9289 16.1612C32.4408 15.673 31.6493 15.673 31.1612 16.1612C30.673 16.6493 30.673 17.4408 31.1612 17.9289L38.2322 25L31.1612 32.0711C30.673 32.5592 30.673 33.3507 31.1612 33.8388C31.6493 34.327 32.4408 34.327 32.9289 33.8388L40.8839 25.8839ZM10 26.25L40 26.25L40 23.75L10 23.75L10 26.25Z" fill="white" style="fill:white;fill-opacity:1;"/>
</g>
</svg>
