<svg width="35" height="35" viewBox="0 0 35 35" fill="none" xmlns="http://www.w3.org/2000/svg">
<g id="cart">
<path id="Icon" d="M3.67432 3.93807C3.18707 3.93807 2.79207 4.33306 2.79207 4.82031C2.79207 5.30756 3.18707 5.70256 3.67432 5.70256V3.93807ZM6.96101 4.82031L7.81258 4.58968C7.70842 4.20511 7.35944 3.93807 6.96101 3.93807V4.82031ZM12.3019 24.5405L11.4503 24.7711C11.5653 25.1955 11.9751 25.4705 12.4113 25.4159L12.3019 24.5405ZM28.7354 22.4863L28.8448 23.3617C29.2195 23.3149 29.5228 23.0348 29.5993 22.6651L28.7354 22.4863ZM31.2004 10.572L32.0643 10.7508C32.1181 10.4909 32.0521 10.2207 31.8845 10.015C31.717 9.80921 31.4657 9.68979 31.2004 9.68979V10.572ZM8.51877 10.572L7.6672 10.8027L8.51877 10.572ZM3.67432 5.70256H6.96101V3.93807H3.67432V5.70256ZM12.4113 25.4159L28.8448 23.3617L28.6259 21.6109L12.1925 23.6651L12.4113 25.4159ZM29.5993 22.6651L32.0643 10.7508L30.3364 10.3933L27.8714 22.3076L29.5993 22.6651ZM6.10944 5.05095L7.6672 10.8027L9.37034 10.3414L7.81258 4.58968L6.10944 5.05095ZM7.6672 10.8027L11.4503 24.7711L13.1535 24.3099L9.37034 10.3414L7.6672 10.8027ZM31.2004 9.68979H8.51877V11.4543H31.2004V9.68979ZM16.5551 29.9196C16.5551 30.62 15.9873 31.1878 15.2869 31.1878V32.9523C16.9618 32.9523 18.3196 31.5945 18.3196 29.9196H16.5551ZM15.2869 31.1878C14.5865 31.1878 14.0187 30.62 14.0187 29.9196H12.2542C12.2542 31.5945 13.612 32.9523 15.2869 32.9523V31.1878ZM14.0187 29.9196C14.0187 29.2192 14.5865 28.6514 15.2869 28.6514V26.8869C13.612 26.8869 12.2542 28.2447 12.2542 29.9196H14.0187ZM15.2869 28.6514C15.9873 28.6514 16.5551 29.2192 16.5551 29.9196H18.3196C18.3196 28.2447 16.9618 26.8869 15.2869 26.8869V28.6514ZM28.0243 29.9196C28.0243 30.62 27.4565 31.1878 26.7561 31.1878V32.9523C28.431 32.9523 29.7888 31.5945 29.7888 29.9196H28.0243ZM26.7561 31.1878C26.0557 31.1878 25.4879 30.62 25.4879 29.9196H23.7234C23.7234 31.5945 25.0812 32.9523 26.7561 32.9523V31.1878ZM25.4879 29.9196C25.4879 29.2192 26.0557 28.6514 26.7561 28.6514V26.8869C25.0812 26.8869 23.7234 28.2447 23.7234 29.9196H25.4879ZM26.7561 28.6514C27.4565 28.6514 28.0243 29.2192 28.0243 29.9196H29.7888C29.7888 28.2447 28.431 26.8869 26.7561 26.8869V28.6514Z" fill="white" style="fill:white;fill-opacity:1;"/>
</g>
</svg>
